<svg width="34" height="34" viewBox="0 0 34 34" fill="none" xmlns="http://www.w3.org/2000/svg">
<g clip-path="url(#clip0_2538_561)">
<path d="M12.5926 16.5926C12.5926 16.2586 12.4599 15.9383 12.2238 15.7022C11.9876 15.466 11.6673 15.3333 11.3333 15.3333H10.0741C9.7401 15.3333 9.4198 15.466 9.18365 15.7022C8.94749 15.9383 8.81482 16.2586 8.81482 16.5926C8.81482 16.9266 8.94749 17.2469 9.18365 17.483C9.4198 17.7192 9.7401 17.8519 10.0741 17.8519H11.3333C11.6673 17.8519 11.9876 17.7192 12.2238 17.483C12.4599 17.2469 12.5926 16.9266 12.5926 16.5926ZM13.3985 22.8889L12.5044 23.783C12.2699 24.0189 12.1383 24.3381 12.1383 24.6707C12.1383 25.0034 12.2699 25.3226 12.5044 25.5585C12.7404 25.7931 13.0595 25.9247 13.3922 25.9247C13.7249 25.9247 14.0441 25.7931 14.28 25.5585L15.1741 24.6644C15.3804 24.4235 15.4882 24.1137 15.4759 23.7967C15.4637 23.4798 15.3323 23.1792 15.108 22.9549C14.8838 22.7307 14.5831 22.5993 14.2662 22.587C13.9493 22.5748 13.6394 22.6826 13.3985 22.8889V22.8889ZM21.4074 7.77778C21.7414 7.77778 22.0617 7.64511 22.2978 7.40895C22.534 7.17279 22.6667 6.8525 22.6667 6.51852V5.25926C22.6667 4.92528 22.534 4.60499 22.2978 4.36883C22.0617 4.13267 21.7414 4 21.4074 4C21.0734 4 20.7531 4.13267 20.517 4.36883C20.2808 4.60499 20.1482 4.92528 20.1482 5.25926V6.51852C20.1482 6.8525 20.2808 7.17279 20.517 7.40895C20.7531 7.64511 21.0734 7.77778 21.4074 7.77778ZM28.5348 10.7244C28.8652 10.7231 29.1818 10.5919 29.4163 10.3593L30.3104 9.46519C30.4422 9.3523 30.5493 9.21338 30.6248 9.05715C30.7004 8.90092 30.7429 8.73075 30.7496 8.55733C30.7563 8.3839 30.7271 8.21097 30.6638 8.04937C30.6005 7.88778 30.5044 7.74101 30.3817 7.61829C30.259 7.49557 30.1122 7.39954 29.9506 7.33623C29.789 7.27293 29.6161 7.2437 29.4427 7.2504C29.2693 7.2571 29.0991 7.29958 28.9429 7.37516C28.7866 7.45075 28.6477 7.55781 28.5348 7.68963L27.7037 8.5837C27.4692 8.81964 27.3375 9.1388 27.3375 9.47148C27.3375 9.80416 27.4692 10.1233 27.7037 10.3593C27.9257 10.5801 28.222 10.7103 28.5348 10.7244V10.7244ZM13.4237 10.3593C13.6583 10.5919 13.9748 10.7231 14.3052 10.7244C14.4709 10.7254 14.6352 10.6936 14.7886 10.631C14.9421 10.5683 15.0816 10.476 15.1993 10.3593C15.4338 10.1233 15.5654 9.80416 15.5654 9.47148C15.5654 9.1388 15.4338 8.81964 15.1993 8.5837L14.3052 7.68963C14.1886 7.57139 14.0499 7.47727 13.8969 7.41265C13.744 7.34803 13.5798 7.31417 13.4137 7.313C13.2477 7.31183 13.083 7.34337 12.9292 7.40584C12.7753 7.4683 12.6353 7.56045 12.517 7.67704C12.3988 7.79362 12.3047 7.93235 12.2401 8.08531C12.1754 8.23827 12.1416 8.40246 12.1404 8.5685C12.138 8.90385 12.269 9.22639 12.5044 9.46519L13.4237 10.3593ZM32.7407 15.3333H31.4815C31.1475 15.3333 30.8272 15.466 30.5911 15.7022C30.3549 15.9383 30.2222 16.2586 30.2222 16.5926C30.2222 16.9266 30.3549 17.2469 30.5911 17.483C30.8272 17.7192 31.1475 17.8519 31.4815 17.8519H32.7407C33.0747 17.8519 33.395 17.7192 33.6312 17.483C33.8673 17.2469 34 16.9266 34 16.5926C34 16.2586 33.8673 15.9383 33.6312 15.7022C33.395 15.466 33.0747 15.3333 32.7407 15.3333ZM29.4163 22.8889C29.1771 22.7558 28.901 22.7043 28.6298 22.7422C28.3587 22.7801 28.1073 22.9054 27.9138 23.0989C27.7202 23.2925 27.595 23.5439 27.5571 23.815C27.5192 24.0861 27.5706 24.3622 27.7037 24.6015L28.5978 25.4956C28.8337 25.7301 29.1529 25.8617 29.4856 25.8617C29.8182 25.8617 30.1374 25.7301 30.3733 25.4956C30.6079 25.2596 30.7395 24.9405 30.7395 24.6078C30.7395 24.2751 30.6079 23.9559 30.3733 23.72L29.4163 22.8889ZM21.4074 9.66667C20.0376 9.66667 18.6985 10.0729 17.5596 10.8339C16.4206 11.5949 15.5329 12.6766 15.0087 13.9422C14.4845 15.2077 14.3473 16.6003 14.6146 17.9438C14.8818 19.2873 15.5414 20.5214 16.51 21.49C17.4787 22.4586 18.7127 23.1182 20.0562 23.3854C21.3997 23.6527 22.7923 23.5155 24.0579 22.9913C25.3234 22.4671 26.4051 21.5794 27.1661 20.4404C27.9271 19.3015 28.3333 17.9624 28.3333 16.5926C28.33 14.7567 27.5992 12.997 26.3011 11.6989C25.003 10.4008 23.2433 9.67 21.4074 9.66667ZM21.4074 21C20.5357 21 19.6836 20.7415 18.9588 20.2572C18.234 19.7729 17.6691 19.0846 17.3355 18.2792C17.0019 17.4739 16.9146 16.5877 17.0847 15.7328C17.2548 14.8778 17.6745 14.0925 18.2909 13.4761C18.9073 12.8597 19.6926 12.4399 20.5476 12.2699C21.4025 12.0998 22.2887 12.1871 23.0941 12.5207C23.8994 12.8543 24.5877 13.4192 25.072 14.144C25.5563 14.8688 25.8148 15.7209 25.8148 16.5926C25.8148 17.7615 25.3505 18.8826 24.5239 19.7091C23.6974 20.5357 22.5763 21 21.4074 21V21ZM21.4074 25.4074C21.0734 25.4074 20.7531 25.5401 20.517 25.7762C20.2808 26.0124 20.1482 26.3327 20.1482 26.6667V27.9259C20.1482 28.2599 20.2808 28.5802 20.517 28.8164C20.7531 29.0525 21.0734 29.1852 21.4074 29.1852C21.7414 29.1852 22.0617 29.0525 22.2978 28.8164C22.534 28.5802 22.6667 28.2599 22.6667 27.9259V26.6667C22.6667 26.3327 22.534 26.0124 22.2978 25.7762C22.0617 25.5401 21.7414 25.4074 21.4074 25.4074Z" fill="white"/>
<rect x="5.66675" y="21.6296" width="15.1111" height="7.55556" fill="#DADADA"/>
<path fill-rule="evenodd" clip-rule="evenodd" d="M13.8518 29.1852C18.0246 29.1852 21.4074 25.8024 21.4074 21.6296C21.4074 17.4568 18.0246 14.0741 13.8518 14.0741C9.679 14.0741 6.29626 17.4568 6.29626 21.6296C6.29626 25.8024 9.679 29.1852 13.8518 29.1852Z" fill="#D9D9D9"/>
<path fill-rule="evenodd" clip-rule="evenodd" d="M20.7778 29.1852C23.2119 29.1852 25.1852 27.2119 25.1852 24.7778C25.1852 22.3436 23.2119 20.3704 20.7778 20.3704C18.3436 20.3704 16.3704 22.3436 16.3704 24.7778C16.3704 27.2119 18.3436 29.1852 20.7778 29.1852Z" fill="#D9D9D9"/>
<path fill-rule="evenodd" clip-rule="evenodd" d="M5.66667 29.1852C8.79628 29.1852 11.3333 26.6481 11.3333 23.5185C11.3333 20.3889 8.79628 17.8518 5.66667 17.8518C2.53705 17.8518 0 20.3889 0 23.5185C0 26.6481 2.53705 29.1852 5.66667 29.1852Z" fill="#D9D9D9"/>
</g>
<defs>
<clipPath id="clip0_2538_561">
<rect width="34" height="34" fill="white"/>
</clipPath>
</defs>
</svg>
