<svg width="50" height="50" viewBox="0 0 50 50" fill="none" xmlns="http://www.w3.org/2000/svg">
<path fill-rule="evenodd" clip-rule="evenodd" d="M14.1104 31.3035C13.4716 32.7998 13.0028 34.3995 13.0032 35.8712C13.004 38.5743 15.0709 40.7656 17.6196 40.7656C20.1683 40.7656 22.2337 38.5743 22.2329 35.8712C22.2325 34.4951 21.7151 32.8654 21.0268 31.3058C19.6585 28.2055 17.6148 25.3828 17.6148 25.3828C17.6148 25.3828 15.4748 28.1075 14.1104 31.3035Z" fill="#363753"/>
<path fill-rule="evenodd" clip-rule="evenodd" d="M29.4932 31.3035C28.8544 32.7998 28.3856 34.3995 28.386 35.8712C28.3869 38.5743 30.4537 40.7656 33.0024 40.7656C35.5511 40.7656 37.6165 38.5743 37.6157 35.8712C37.6153 34.4951 37.0979 32.8654 36.4096 31.3058C35.0413 28.2055 32.9977 25.3828 32.9977 25.3828C32.9977 25.3828 30.8576 28.1075 29.4932 31.3035Z" fill="#363753"/>
<path fill-rule="evenodd" clip-rule="evenodd" d="M36.876 15.9207C36.2372 17.417 35.7684 19.0167 35.7688 20.4884C35.7697 23.1915 37.8365 25.3828 40.3852 25.3828C42.9339 25.3828 44.9994 23.1915 44.9985 20.4884C44.9981 19.1123 44.4807 17.4825 43.7924 15.923C42.4241 12.8227 40.3805 10 40.3805 10C40.3805 10 38.2404 12.7247 36.876 15.9207Z" fill="#363753"/>
<path fill-rule="evenodd" clip-rule="evenodd" d="M21.4932 15.9207C20.8544 17.417 20.3856 19.0167 20.386 20.4884C20.3869 23.1915 22.4537 25.3828 25.0024 25.3828C27.5511 25.3828 29.6165 23.1915 29.6157 20.4884C29.6153 19.1123 29.0979 17.4825 28.4096 15.923C27.0413 12.8227 24.9977 10 24.9977 10C24.9977 10 22.8576 12.7247 21.4932 15.9207Z" fill="#363753"/>
<path fill-rule="evenodd" clip-rule="evenodd" d="M6.11039 15.9207C5.47157 17.417 5.00277 19.0167 5.00322 20.4884C5.00405 23.1915 7.07085 25.3828 9.61956 25.3828C12.1683 25.3828 14.2337 23.1915 14.2329 20.4884C14.2325 19.1123 13.7151 17.4825 13.0268 15.923C11.6585 12.8227 9.61484 10 9.61484 10C9.61484 10 7.47481 12.7247 6.11039 15.9207Z" fill="#363753"/>
</svg>
