<svg width="50" height="50" viewBox="0 0 50 50" fill="none" xmlns="http://www.w3.org/2000/svg">
<path fill-rule="evenodd" clip-rule="evenodd" d="M21.6669 15.6573L21.6669 15.6475L12.2323 15.6474L21.2822 12.3772L21.2813 12.3745C21.4546 12.3308 21.6339 12.3153 21.8124 12.3286C21.836 12.3303 21.8595 12.3326 21.883 12.3354L21.8834 12.3354C22.1284 12.3643 22.3641 12.4472 22.5732 12.5783L22.5732 12.5783C22.7824 12.7094 22.9598 12.8853 23.0926 13.0933L23.0928 13.0937C23.2256 13.3017 23.3106 13.5367 23.3416 13.7815L23.3416 13.782C23.3725 14.027 23.3486 14.2758 23.2717 14.5104L23.2716 14.5106C23.1946 14.7452 23.0664 14.9599 22.8963 15.1389L22.8961 15.1391C22.7261 15.318 22.5184 15.4569 22.2881 15.5458L22.2876 15.546C22.266 15.5543 22.2442 15.5622 22.2222 15.5696C22.0433 15.6301 21.8555 15.6597 21.6669 15.6573ZM5 14.716V18.9809L21.6326 18.9811C22.2643 18.9882 22.8926 18.8752 23.4838 18.6471L23.4842 18.6469C23.9342 18.4733 24.3554 18.2358 24.7353 17.9428C24.9375 17.7867 25.1281 17.615 25.305 17.4288L25.3052 17.4286C25.8144 16.8926 26.1982 16.2501 26.4288 15.5476L26.4288 15.5474C26.6594 14.8448 26.731 14.0999 26.6385 13.3663L26.6385 13.3658C26.5459 12.6322 26.2915 11.9283 25.8937 11.3051L25.8935 11.3047C25.4956 10.6814 24.9642 10.1543 24.3377 9.76165L24.3376 9.76163C24.1199 9.62517 23.8926 9.50612 23.6578 9.40524C23.2171 9.21582 22.75 9.09045 22.2709 9.03412L22.2705 9.03408C21.5567 8.95021 20.8334 9.02162 20.1502 9.24315L20.1497 9.24173L20.0985 9.2602L20.0925 9.26224L20.0918 9.26247L20.0919 9.26262L5 14.716ZM5 28.9967V32.4209L27.0097 40.2511L27.0094 40.2517C27.806 40.5695 28.6628 40.7077 29.5188 40.6564C29.8479 40.6366 30.1738 40.5891 30.4932 40.5146C31.0043 40.3955 31.4985 40.2075 31.9618 39.9547C32.7147 39.5439 33.3677 38.9721 33.8743 38.28C34.381 37.5879 34.7287 36.7925 34.8929 35.9506C35.057 35.1086 35.0335 34.2408 34.8239 33.409C34.6143 32.5772 34.224 31.8019 33.6805 31.1383C33.346 30.7298 32.9586 30.3698 32.5297 30.0673C32.2617 29.8784 31.9776 29.7118 31.68 29.5698C30.9072 29.2011 30.0627 29.0072 29.2065 29.0018V28.9968L5 28.9967ZM29.1839 32.3304L14.6918 32.3304L28.307 37.1741L28.3058 37.1776C28.6294 37.297 28.9745 37.3481 29.3193 37.3274C29.6858 37.3054 30.043 37.2028 30.3654 37.0269C30.6878 36.851 30.9674 36.6062 31.1844 36.3098C31.4013 36.0134 31.5503 35.6728 31.6206 35.3123C31.6908 34.9517 31.6808 34.5801 31.591 34.2239C31.5013 33.8677 31.3341 33.5357 31.1014 33.2515C30.8687 32.9674 30.5762 32.7381 30.2447 32.5799C29.9138 32.422 29.5521 32.3389 29.1854 32.3367L29.1838 32.3367L29.1838 32.336L29.1839 32.3304ZM36.6967 16.0802L36.6953 16.081L35.056 13.1786L35.0542 13.1752L35.0574 13.1734C35.945 12.6725 36.9355 12.3818 37.9529 12.3236C38.1005 12.3152 38.2481 12.3117 38.3954 12.313C39.2651 12.3211 40.1262 12.4994 40.9298 12.8393C41.8696 13.2369 42.7056 13.8449 43.3735 14.6165C44.0414 15.3881 44.5232 16.3028 44.782 17.2901C45.0408 18.2774 45.0696 19.3109 44.8661 20.311C44.6627 21.3112 44.2325 22.2513 43.6086 23.0589C43.0751 23.7495 42.4123 24.3274 41.6586 24.7613C41.5308 24.8348 41.4004 24.9042 41.2676 24.9694C40.3514 25.4186 39.3444 25.6515 38.324 25.65V25.6495H5V22.3162H38.3287L38.3287 22.3126C38.8384 22.3133 39.3414 22.197 39.7991 21.9726C40.2568 21.7482 40.6568 21.4217 40.9685 21.0183C41.2802 20.6148 41.4951 20.1452 41.5967 19.6456C41.6983 19.146 41.6839 18.6297 41.5547 18.1365C41.4254 17.6433 41.1847 17.1864 40.8511 16.801C40.5175 16.4155 40.0998 16.1118 39.6304 15.9132C39.1609 15.7147 38.6522 15.6265 38.1433 15.6556C37.635 15.6847 37.1401 15.8299 36.6967 16.0802Z" fill="#363753"/>
</svg>
