<svg width="50" height="50" viewBox="0 0 50 50" fill="none" xmlns="http://www.w3.org/2000/svg">
<path fill-rule="evenodd" clip-rule="evenodd" d="M44.4607 30.6713C45.2278 27.8084 45.3331 24.9241 44.8706 22.1807C44.2512 24.1673 43.146 25.8835 41.7206 27.2306L41.7191 27.2449C40.6524 28.2954 39.3949 29.1354 38.0124 29.7186C36.4591 30.3738 34.7838 30.6899 33.0986 30.6456C31.4133 30.6013 29.757 30.1977 28.2402 29.4619C26.7235 28.726 25.3814 27.6747 24.3036 26.3785C23.2258 25.0822 22.4372 23.5707 21.9905 21.9452C21.5438 20.3196 21.4493 18.6174 21.7134 16.9524C21.9775 15.2874 22.594 13.6979 23.5217 12.2903C24.387 10.9774 25.5045 9.85094 26.8081 8.97566C28.4703 7.81408 30.4244 7.08193 32.4849 6.88961C31.785 6.61436 31.0623 6.37567 30.3185 6.17638C19.6492 3.31754 8.68246 9.64919 5.82362 20.3185C2.96478 30.9878 9.29643 41.9546 19.9658 44.8134C30.6351 47.6722 41.6018 41.3406 44.4607 30.6713ZM40.219 32.6055C36.8513 39.7676 28.7418 43.714 20.8285 41.5937C11.9374 39.2113 6.66101 30.0723 9.04337 21.1812C10.6886 15.0411 15.5562 10.6249 21.3392 9.26456C21.0653 9.61097 20.806 9.96963 20.5621 10.3397C19.3567 12.1686 18.5556 14.2338 18.2125 16.3972C17.8694 18.5605 17.9922 20.7722 18.5726 22.8844C19.153 24.9965 20.1776 26.9604 21.578 28.6446C22.9784 30.3289 24.7223 31.6948 26.693 32.6509C28.6637 33.6071 30.8158 34.1315 33.0055 34.189C35.1952 34.2465 37.3719 33.8359 39.3901 32.9845C39.6704 32.8662 39.9469 32.7398 40.219 32.6055ZM41.5762 13.1852L40.7021 10.495L39.828 13.1852L36.9994 13.1852L39.2878 14.8478L38.4137 17.538L40.7021 15.8754L42.9905 17.538L42.1164 14.8478L44.4048 13.1852L41.5762 13.1852ZM30.7021 10.495L31.5762 13.1852L34.4048 13.1852L32.1164 14.8478L32.9905 17.538L30.7021 15.8754L28.4137 17.538L29.2878 14.8478L26.9994 13.1852L29.828 13.1852L30.7021 10.495ZM36.5762 19.8519L35.7021 17.1617L34.828 19.8519L31.9994 19.8519L34.2878 21.5145L33.4137 24.2047L35.7021 22.542L37.9905 24.2047L37.1164 21.5145L39.4048 19.8519L36.5762 19.8519Z" fill="url(#paint0_linear_4_2781)"/>
<defs>
<linearGradient id="paint0_linear_4_2781" x1="30.3185" y1="6.17638" x2="19.9658" y2="44.8134" gradientUnits="userSpaceOnUse">
<stop stop-color="#F5BD52"/>
<stop offset="1" stop-color="#F5DA79"/>
</linearGradient>
</defs>
</svg>
