<svg width="50" height="50" viewBox="0 0 50 50" fill="none" xmlns="http://www.w3.org/2000/svg">
<path fill-rule="evenodd" clip-rule="evenodd" d="M23.5714 9.28571V5H26.4286V9.28571H23.5714ZM31.6201 10.6769L33.7629 6.96533L36.2373 8.3939L34.0944 12.1054L31.6201 10.6769ZM25 35C30.5228 35 35 30.5228 35 25C35 19.4772 30.5228 15 25 15C19.4772 15 15 19.4772 15 25C15 30.5228 19.4772 35 25 35ZM25 37.8571C32.1008 37.8571 37.8571 32.1008 37.8571 25C37.8571 17.8992 32.1008 12.1429 25 12.1429C17.8992 12.1429 12.1429 17.8992 12.1429 25C12.1429 32.1008 17.8992 37.8571 25 37.8571ZM40.7143 23.5714H45V26.4286H40.7143V23.5714ZM41.6062 13.7628L37.8946 15.9057L39.3232 18.38L43.0348 16.2372L41.6062 13.7628ZM13.7628 8.3939L15.9057 12.1054L18.38 10.6769L16.2372 6.96533L13.7628 8.3939ZM10.6768 18.38L6.96525 16.2372L8.39382 13.7628L12.1054 15.9057L10.6768 18.38ZM23.5714 40.7143V45H26.4286V40.7143H23.5714ZM9.28571 23.5714H5V26.4286H9.28571V23.5714ZM6.96517 33.7628L10.6767 31.62L12.1053 34.0943L8.39374 36.2372L6.96517 33.7628ZM15.9058 37.8948L13.7629 41.6063L16.2373 43.0349L18.3801 39.3234L15.9058 37.8948ZM33.7628 43.0349L31.62 39.3234L34.0943 37.8948L36.2372 41.6063L33.7628 43.0349ZM37.8947 34.0943L41.6063 36.2372L43.0348 33.7628L39.3233 31.62L37.8947 34.0943Z" fill="url(#paint0_linear_4_2780)"/>
<defs>
<linearGradient id="paint0_linear_4_2780" x1="25" y1="5" x2="25" y2="45" gradientUnits="userSpaceOnUse">
<stop stop-color="#EFC977"/>
<stop offset="1" stop-color="#E07256"/>
</linearGradient>
</defs>
</svg>
