<svg width="50" height="50" viewBox="0 0 50 50" fill="none" xmlns="http://www.w3.org/2000/svg">
<path fill-rule="evenodd" clip-rule="evenodd" d="M31.2277 1.85506L31.1017 5.33154L33.1004 5.40396L33.2264 1.92748L31.2277 1.85506ZM47.8994 17.7033L44.423 17.5773L44.3505 19.576L47.827 19.7019L47.8994 17.7033ZM42.4416 11.2578L45.5153 9.62863L46.4519 11.3958L43.3782 13.0249L42.4416 11.2578ZM39.4136 3.82771L37.5663 6.77544L39.261 7.8375L41.1083 4.88977L39.4136 3.82771ZM24.7826 7.31291L23.1534 4.23921L24.9205 3.30258L26.5497 6.37628L24.7826 7.31291ZM40.3719 18.431C40.3091 20.1636 39.7508 21.7614 38.8382 23.093C39.5191 23.2457 40.1692 23.477 40.7788 23.7766C41.7262 22.2372 42.3004 20.4389 42.3705 18.5034C42.587 12.5301 37.9201 7.51225 31.9467 7.29582C27.6574 7.14041 23.8608 9.50299 21.9809 13.0592L21.9946 13.0597C22.7307 13.0863 23.4506 13.172 24.1502 13.3118C25.7838 10.7969 28.6593 9.17802 31.8743 9.29451C36.7438 9.47094 40.5483 13.5615 40.3719 18.431Z" fill="url(#paint0_linear_4_2800)"/>
<path fill-rule="evenodd" clip-rule="evenodd" d="M20 38.5714L20.0763 38.5712V38.5714H35L35 38.5713C38.8211 38.5713 42.1429 35.2869 42.1429 30.9523C42.1429 26.6177 38.8211 23.3332 35 23.3332C33.9565 23.3332 32.9503 23.5782 32.0387 24.0226C31.9165 23.0383 31.6892 22.0891 31.3691 21.188L31.3724 21.1867C29.6271 16.2672 25.1231 12.8571 20 12.8571C13.4175 12.8571 7.85714 18.4868 7.85714 25.7143C7.85714 32.9418 13.4175 38.5714 20 38.5714ZM35 41.4285C40.5228 41.4285 45 36.7381 45 30.9523C45 25.1664 40.5228 20.4761 35 20.4761C34.7167 20.4761 34.4361 20.4884 34.1587 20.5126C32.1094 14.3902 26.5441 10 20 10C11.7157 10 5 17.0355 5 25.7143C5 34.3931 11.7157 41.4286 20 41.4286C20.0135 41.4286 20.0269 41.4286 20.0404 41.4285V41.4286H35L35 41.4285Z" fill="url(#paint1_linear_4_2800)"/>
<defs>
<linearGradient id="paint0_linear_4_2800" x1="35.4247" y1="2.00713" x2="34.644" y2="23.5543" gradientUnits="userSpaceOnUse">
<stop stop-color="#EFC977"/>
<stop offset="1" stop-color="#E07256"/>
</linearGradient>
<linearGradient id="paint1_linear_4_2800" x1="25" y1="10" x2="25" y2="41.4286" gradientUnits="userSpaceOnUse">
<stop stop-color="#B2D4F7"/>
<stop offset="1" stop-color="#D9E2F3"/>
</linearGradient>
</defs>
</svg>
