<svg width="50" height="50" viewBox="0 0 50 50" fill="none" xmlns="http://www.w3.org/2000/svg">
<path fill-rule="evenodd" clip-rule="evenodd" d="M27.7647 5V8.47876H29.7647V5H27.7647ZM44.9994 20.2341H41.5206V22.2341H44.9994V20.2341ZM39.3118 13.9905L42.3245 12.2511L43.3245 13.9832L40.3118 15.7226L39.3118 13.9905ZM36.0167 6.67494L34.2774 9.68764L36.0094 10.6876L37.7488 7.67494L36.0167 6.67494ZM21.5215 10.6876L19.7821 7.67494L21.5141 6.67494L23.2535 9.68764L21.5215 10.6876ZM37.5031 21.2339C37.5031 22.9677 37.003 24.5846 36.1392 25.9484C36.8253 26.0764 37.4833 26.284 38.1033 26.5613C38.9944 24.9886 39.5031 23.1707 39.5031 21.2339C39.5031 15.2567 34.6576 10.4112 28.6803 10.4112C24.3882 10.4112 20.6796 12.9097 18.9297 16.5316L18.9434 16.5316C19.6799 16.5316 20.4026 16.5911 21.1067 16.7055C22.6482 14.1331 25.4632 12.4112 28.6803 12.4112C33.553 12.4112 37.5031 16.3613 37.5031 21.2339Z" fill="url(#paint0_linear_4_2800)"/>
<path fill-rule="evenodd" clip-rule="evenodd" d="M23.5137 44.5714C22.3866 44.8516 21.2101 45 20 45C11.7157 45 5 38.0444 5 29.4643C5 20.8842 11.7157 13.9286 20 13.9286C26.5441 13.9286 32.1094 18.2689 34.1587 24.3218C34.436 24.2979 34.7165 24.2857 34.9997 24.2857C40.5226 24.2857 44.9997 28.9227 44.9997 34.6428C44.9997 40.3629 40.5226 45 34.9997 45C34.0074 45 33.0488 44.8502 32.1438 44.5714L23.5137 44.5714ZM28.0563 42.5714H28.5653C28.4914 42.507 28.4183 42.4415 28.3463 42.3749C28.2504 42.4415 28.1537 42.5071 28.0563 42.5714ZM35.3451 42.9922V42.5714H32.4707C32.1274 42.4517 31.794 42.3083 31.4723 42.1429H24.5561C24.1311 42.3087 23.6957 42.452 23.2516 42.5714H20.2818V42.9969C20.1881 42.999 20.0942 43 20 43C12.8859 43 7 37.0066 7 29.4643C7 21.922 12.8859 15.9286 20 15.9286C25.5297 15.9286 30.3173 19.5496 32.1756 24.7045C31.9004 24.7882 31.6302 24.8839 31.3654 24.9909C31.5942 25.6169 31.7763 26.2667 31.9074 26.9357C32.8631 26.5163 33.9093 26.2857 34.9997 26.2857C39.3524 26.2857 42.9997 29.9606 42.9997 34.6428C42.9997 39.2007 39.5436 42.804 35.3451 42.9922Z" fill="url(#paint1_linear_4_2800)"/>
<defs>
<linearGradient id="paint0_linear_4_2800" x1="31.9645" y1="5" x2="31.9645" y2="26.5613" gradientUnits="userSpaceOnUse">
<stop stop-color="#EFC977"/>
<stop offset="1" stop-color="#E07256"/>
</linearGradient>
<linearGradient id="paint1_linear_4_2800" x1="24.9999" y1="13.9286" x2="24.9999" y2="45" gradientUnits="userSpaceOnUse">
<stop stop-color="#B2D4F7"/>
<stop offset="1" stop-color="#D9E2F3"/>
</linearGradient>
</defs>
</svg>
