<svg width="50" height="50" viewBox="0 0 50 50" fill="none" xmlns="http://www.w3.org/2000/svg">
<path fill-rule="evenodd" clip-rule="evenodd" d="M41.1635 26.9338C40.4159 26.2744 39.5282 25.7639 38.5493 25.4501C40.4176 23.8897 41.6972 21.6922 42.0465 19.226C41.9402 19.2733 41.833 19.3186 41.725 19.3619C41.6366 19.3973 41.5476 19.4314 41.4581 19.4641C40.2945 19.8889 39.0442 20.0796 37.7828 20.0121L37.7565 20.0106C35.5167 19.8844 33.4032 18.9527 31.8231 17.3945L31.8119 17.3834C30.3804 15.9669 29.4812 14.1264 29.2476 12.1608C29.2221 11.9466 29.2046 11.731 29.1951 11.5142C29.1433 10.3301 29.3345 9.15877 29.7462 8.06529C26.1077 8.79709 23.2069 11.389 22.0735 14.7302C21.142 14.5239 20.1777 14.4021 19.1895 14.3737C20.7427 8.96539 25.823 5 31.8505 5C33.2453 5 34.5895 5.21236 35.8509 5.60581C34.69 6.08467 33.7098 6.89834 33.038 7.92258C33.0305 7.92174 33.0229 7.92092 33.0154 7.9201C32.3543 8.95356 32.0235 10.1642 32.0773 11.395C32.0834 11.5343 32.0943 11.6729 32.1101 11.8107C32.2642 13.1569 32.8755 14.4186 33.8524 15.3903L33.8635 15.4013C34.9472 16.4736 36.4001 17.1132 37.9392 17.1956L37.9655 17.1969C38.8926 17.2427 39.8104 17.0842 40.6543 16.742C41.2032 16.5195 41.7208 16.2192 42.1894 15.8468L42.1914 15.8491C43.0569 15.1584 43.7272 14.244 44.1093 13.1965C44.6844 14.6415 44.9999 16.2133 44.9999 17.8571C44.9999 21.4001 43.5343 24.6083 41.1635 26.9338Z" fill="url(#paint0_linear_4_2802)"/>
<path fill-rule="evenodd" clip-rule="evenodd" d="M20 42.1429L20.0763 42.1426V42.1429H35L35 42.1427C38.8211 42.1427 42.1429 38.8583 42.1429 34.5237C42.1429 30.1891 38.8211 26.9046 35 26.9046C33.9565 26.9046 32.9503 27.1496 32.0387 27.594C31.9165 26.6097 31.6892 25.6605 31.3691 24.7594L31.3724 24.7581C29.6271 19.8386 25.1231 16.4286 20 16.4286C13.4175 16.4286 7.85714 22.0582 7.85714 29.2857C7.85714 36.5132 13.4175 42.1429 20 42.1429ZM35 44.9999C40.5228 44.9999 45 40.3095 45 34.5237C45 28.7378 40.5228 24.0475 35 24.0475C34.7167 24.0475 34.4361 24.0598 34.1587 24.084C32.1094 17.9616 26.5441 13.5714 20 13.5714C11.7157 13.5714 5 20.6069 5 29.2857C5 37.9645 11.7157 45 20 45C20.0135 45 20.0269 45 20.0404 44.9999V45H35L35 44.9999Z" fill="url(#paint1_linear_4_2802)"/>
<defs>
<linearGradient id="paint0_linear_4_2802" x1="32.0947" y1="5" x2="32.0947" y2="26.9338" gradientUnits="userSpaceOnUse">
<stop stop-color="#F5BD52"/>
<stop offset="1" stop-color="#F5DA79"/>
</linearGradient>
<linearGradient id="paint1_linear_4_2802" x1="25" y1="13.5714" x2="25" y2="45" gradientUnits="userSpaceOnUse">
<stop stop-color="#B2D4F7"/>
<stop offset="1" stop-color="#D9E2F3"/>
</linearGradient>
</defs>
</svg>
