<svg width="50" height="50" viewBox="0 0 50 50" fill="none" xmlns="http://www.w3.org/2000/svg">
<path fill-rule="evenodd" clip-rule="evenodd" d="M45 27.4285C45 32.0544 41.9708 35.9467 37.8571 37.089V34.0667C40.3306 33.0311 42.1429 30.5026 42.1429 27.4285C42.1429 23.3851 39.0076 20.2857 35.3561 20.2857C34.3246 20.2857 33.3342 20.5331 32.444 20.9793C32.3986 20.1481 32.2767 19.3382 32.0855 18.557L32.0812 18.5588C30.7274 12.9286 25.8341 8.85714 20.1547 8.85714C13.4597 8.85714 7.85714 14.5149 7.85714 21.7143C7.85714 26.3273 10.1574 30.3075 13.5714 32.5718V35.8724C8.49912 33.3318 5 27.9468 5 21.7143C5 13.0355 11.785 6 20.1547 6C27.0985 6 32.9516 10.8425 34.7443 17.4484C34.9466 17.4352 35.1506 17.4286 35.3561 17.4286C40.6823 17.4286 45 21.9057 45 27.4285ZM16.4301 35.1559C16.4299 34.4725 16.6475 33.7297 16.9442 33.0349C17.5777 31.5509 18.5714 30.2857 18.5714 30.2857C18.5714 30.2857 19.5204 31.5964 20.1557 33.036C20.4753 33.7602 20.7156 34.5169 20.7158 35.1559C20.7162 36.4111 19.7571 37.4286 18.5736 37.4286C17.3902 37.4286 16.4305 36.4111 16.4301 35.1559ZM24.087 33.0349C23.7904 33.7297 23.5727 34.4725 23.5729 35.1559C23.5733 36.4111 24.533 37.4286 25.7165 37.4286C26.8999 37.4286 27.859 36.4111 27.8586 35.1559C27.8584 34.5169 27.6182 33.7602 27.2986 33.036C26.6632 31.5964 25.7143 30.2857 25.7143 30.2857C25.7143 30.2857 24.7206 31.5509 24.087 33.0349ZM20.5365 42.2987C20.5363 41.6154 20.754 40.8726 21.0506 40.1778C21.6842 38.6937 22.6779 37.4286 22.6779 37.4286C22.6779 37.4286 23.6268 38.7393 24.2622 40.1789C24.5818 40.903 24.822 41.6598 24.8222 42.2987C24.8226 43.5539 23.8635 44.5714 22.6801 44.5714C21.4966 44.5714 20.5369 43.5539 20.5365 42.2987ZM31.2299 33.0349C30.9333 33.7297 30.7156 34.4725 30.7158 35.1559C30.7162 36.4111 31.6759 37.4286 32.8593 37.4286C34.0428 37.4286 35.0019 36.4111 35.0015 35.1559C35.0013 34.5169 34.761 33.7602 34.4415 33.036C33.8061 31.5964 32.8571 30.2857 32.8571 30.2857C32.8571 30.2857 31.8634 31.5509 31.2299 33.0349ZM27.7006 42.2987C27.7004 41.6154 27.9181 40.8726 28.2147 40.1778C28.8483 38.6937 29.842 37.4286 29.842 37.4286C29.842 37.4286 30.791 38.7393 31.4263 40.1789C31.7459 40.903 31.9862 41.6598 31.9864 42.2987C31.9867 43.5539 31.0277 44.5714 29.8442 44.5714C28.6607 44.5714 27.701 43.5539 27.7006 42.2987Z" fill="url(#paint0_linear_13_1193)"/>
<defs>
<linearGradient id="paint0_linear_13_1193" x1="25" y1="6" x2="25" y2="44.5714" gradientUnits="userSpaceOnUse">
<stop stop-color="#95B6F6"/>
<stop offset="1" stop-color="#5193DE"/>
</linearGradient>
</defs>
</svg>
