<svg width="50" height="50" viewBox="0 0 50 50" fill="none" xmlns="http://www.w3.org/2000/svg">
<path fill-rule="evenodd" clip-rule="evenodd" d="M42.1429 27.1545C42.1429 30.4014 40.031 33.1256 37.1429 34.0435V37C41.636 36.0114 45 31.9788 45 27.1545C45 21.5889 40.5228 17.0772 35 17.0772C34.7167 17.0772 34.4361 17.089 34.1587 17.1123C32.1094 11.223 26.5441 7 20 7C11.7157 7 5 13.7677 5 22.1161C5 28.4254 8.83588 33.832 14.2857 36.0966V32.9346C10.4659 30.8743 7.85715 26.8115 7.85715 22.1161C7.85715 15.3249 13.3144 9.85715 20 9.85715C25.1763 9.85715 29.6163 13.1348 31.3572 17.7667L31.3691 17.762C31.6992 18.656 31.9307 19.5991 32.0499 20.5778C32.9507 20.1642 33.9501 19.9343 35 19.9343C38.9242 19.9343 42.1429 23.1461 42.1429 27.1545ZM35.0001 28.4286H20.7143V31.2858H35.0001V28.4286ZM32.1429 34.1429H17.8572V37.0001H32.1429V34.1429ZM20.7143 39.8572H35.0001V42.7144H20.7143V39.8572Z" fill="url(#paint0_linear_4_2864)"/>
<defs>
<linearGradient id="paint0_linear_4_2864" x1="25" y1="7" x2="25" y2="42.7144" gradientUnits="userSpaceOnUse">
<stop stop-color="#CED3EA"/>
<stop offset="1" stop-color="#7E83A9"/>
</linearGradient>
</defs>
</svg>
