<svg width="50" height="50" viewBox="0 0 50 50" fill="none" xmlns="http://www.w3.org/2000/svg">
<path fill-rule="evenodd" clip-rule="evenodd" d="M18.6168 13.6514C19.1225 13.5985 19.6355 13.5714 20.1547 13.5714C27.0985 13.5714 32.9516 18.4139 34.7443 25.0198C34.8878 25.0105 35.0322 25.0044 35.1773 25.0017C35.1183 25.0007 35.0592 25.0002 35 25.0002L34.9521 25.0003L34.952 25H37.1428H37.2288V24.9993C39.9506 24.9534 42.1428 22.7327 42.1428 20C42.1428 17.2386 39.9042 15 37.1428 15C36.2156 15 35.3474 15.2524 34.6031 15.6921C34.6009 14.894 34.4796 14.1238 34.2562 13.3984C33.1431 10.1735 30.081 7.85714 26.4779 7.85714C22.7812 7.85714 19.654 10.2954 18.6168 13.6514ZM40.9666 26.8655C43.4087 28.6798 45 31.6472 45 35C45 40.5228 40.6823 44.9999 35.3561 44.9999C35.2369 44.9999 35.1182 44.9977 35 44.9933V45H20.3816V44.9983C20.3061 44.9994 20.2305 45 20.1547 45C11.785 45 5 37.9645 5 29.2857C5 22.2776 9.42419 16.341 15.5345 14.3151C16.3813 9.03437 20.9584 5 26.4779 5C31.2134 5 35.2553 7.96977 36.8427 12.1485C36.9423 12.1447 37.0423 12.1429 37.1428 12.1429C41.4822 12.1429 44.9999 15.6606 44.9999 20C44.9999 22.9513 43.3728 25.5225 40.9666 26.8655ZM35 42.1429H20.3816H20.2172V42.1427L20.1547 42.1429C13.4597 42.1429 7.85714 36.485 7.85714 29.2857C7.85714 22.0864 13.4597 16.4286 20.1547 16.4286C25.8341 16.4286 30.7274 20.5001 32.0812 26.1302L32.0855 26.1285C32.2767 26.9096 32.3986 27.7195 32.444 28.5507C33.3342 28.1045 34.3246 27.8572 35.3561 27.8572C39.0076 27.8572 42.1429 30.9566 42.1429 35C42.1429 39.0151 39.0513 42.0993 35.4328 42.1423V42.1429H35Z" fill="url(#paint0_linear_13_1236)"/>
<defs>
<linearGradient id="paint0_linear_13_1236" x1="25" y1="5" x2="25" y2="45" gradientUnits="userSpaceOnUse">
<stop stop-color="#CED3EA"/>
<stop offset="1" stop-color="#7E83A9"/>
</linearGradient>
</defs>
</svg>
