<svg width="50" height="50" viewBox="0 0 50 50" fill="none" xmlns="http://www.w3.org/2000/svg">
<path fill-rule="evenodd" clip-rule="evenodd" d="M42.1118 21.0154C43.8906 19.3237 44.9996 16.9341 44.9996 14.2856C44.9996 9.15729 40.8423 5 35.714 5C32.5059 5 29.6779 6.62686 28.0098 9.10058C28.7395 9.79078 29.3999 10.5535 29.9796 11.3771C31.0411 9.28827 33.2104 7.85709 35.714 7.85709C39.2643 7.85709 42.1425 10.7352 42.1425 14.2856C42.1425 15.8656 41.5724 17.3124 40.6268 18.4317C41.252 19.2006 41.7565 20.0714 42.1118 21.0154Z" fill="url(#paint0_linear_4_2895)"/>
<path fill-rule="evenodd" clip-rule="evenodd" d="M5 20.714C5 26.9464 8.49906 32.3314 13.5713 34.8719V31.5714C10.1573 29.3071 7.85709 25.327 7.85709 20.714C7.85709 13.5148 13.4596 7.85709 20.1544 7.85709C25.8337 7.85709 30.7269 11.9285 32.0808 17.5586L32.0851 17.5568C32.2763 18.338 32.3982 19.1479 32.4436 19.979C33.3337 19.5329 34.3241 19.2855 35.3556 19.2855C39.007 19.2855 42.1422 22.3849 42.1422 26.4282C42.1422 28.8717 40.9972 30.9705 39.2851 32.2488V35.5629C42.6526 34.003 44.9993 30.4998 44.9993 26.4282C44.9993 20.9055 40.6817 16.4284 35.3556 16.4284C35.1501 16.4284 34.9461 16.4351 34.7438 16.4482C32.9511 9.84244 27.0981 5 20.1544 5C11.7849 5 5 12.0354 5 20.714ZM28.8838 31.0032C29.1833 31.1762 29.6526 31.1007 29.8925 30.685C30.0239 30.4573 30.1928 29.9844 30.3152 29.2146C30.364 28.9076 30.4007 28.5839 30.4274 28.2516C29.593 28.8419 28.9608 29.4402 28.6549 29.9702C28.415 30.3859 28.5842 30.8302 28.8838 31.0032ZM30.4201 24.8878C31.9091 24.0535 33.1698 23.577 33.1698 23.577C33.1698 23.577 33.3347 24.9185 33.3412 26.6087C33.3482 28.4603 33.1651 30.7304 32.3666 32.1139C31.3625 33.8537 29.1638 34.4643 27.4556 33.4778C25.7475 32.4912 25.1767 30.2811 26.1808 28.5413C27.0571 27.0231 28.8634 25.7599 30.4201 24.8878ZM19.4513 32.4572C19.7509 32.6302 20.2201 32.5547 20.4601 32.139C20.5915 31.9113 20.7604 31.4384 20.8827 30.6686C20.9315 30.3617 20.9683 30.038 20.9949 29.7056C20.1605 30.2959 19.5284 30.8942 19.2225 31.4242C18.9825 31.8399 19.1518 32.2842 19.4513 32.4572ZM20.9876 26.3418C22.4767 25.5075 23.7373 25.031 23.7373 25.031C23.7373 25.031 23.9023 26.3725 23.9087 28.0627C23.9158 29.9143 23.7326 32.1844 22.9342 33.5679C21.93 35.3077 19.7313 35.9183 18.0231 34.9318C16.315 33.9452 15.7442 31.7351 16.7484 29.9953C17.6246 28.4771 19.4309 27.2139 20.9876 26.3418ZM33.1128 39.4463C32.8728 39.8621 32.4036 39.9376 32.104 39.7646C31.8045 39.5916 31.6352 39.1473 31.8752 38.7315C32.1811 38.2015 32.8132 37.6032 33.6476 37.0129C33.621 37.3453 33.5842 37.669 33.5354 37.9759C33.4131 38.7458 33.2442 39.2186 33.1128 39.4463ZM36.3901 32.3383C36.3901 32.3383 35.1294 32.8149 33.6403 33.6491C32.0836 34.5213 30.2773 35.7844 29.4011 37.3026C28.397 39.0424 28.9677 41.2526 30.6759 42.2391C32.384 43.2257 34.5828 42.615 35.5869 40.8753C36.3853 39.4918 36.5685 37.2217 36.5614 35.3701C36.555 33.6798 36.3901 32.3383 36.3901 32.3383ZM22.5066 42.0528C22.8062 42.2258 23.2754 42.1503 23.5153 41.7346C23.6467 41.5069 23.8156 41.034 23.938 40.2642C23.9868 39.9573 24.0235 39.6336 24.0502 39.3012C23.2158 39.8915 22.5836 40.4898 22.2777 41.0198C22.0378 41.4355 22.207 41.8798 22.5066 42.0528ZM24.0429 35.9374C25.5319 35.1032 26.7926 34.6266 26.7926 34.6266C26.7926 34.6266 26.9575 35.9681 26.964 37.6583C26.971 39.5099 26.7879 41.78 25.9894 43.1635C24.9853 44.9033 22.7866 45.5139 21.0784 44.5274C19.3703 43.5408 18.7995 41.3307 19.8036 39.5909C20.6799 38.0727 22.4862 36.8096 24.0429 35.9374Z" fill="url(#paint1_linear_4_2895)"/>
<defs>
<linearGradient id="paint0_linear_4_2895" x1="36.5047" y1="5" x2="36.5047" y2="21.0154" gradientUnits="userSpaceOnUse">
<stop stop-color="#EFC977"/>
<stop offset="1" stop-color="#E07256"/>
</linearGradient>
<linearGradient id="paint1_linear_4_2895" x1="24.9997" y1="5" x2="24.9997" y2="44.9992" gradientUnits="userSpaceOnUse">
<stop stop-color="#95B6F6"/>
<stop offset="1" stop-color="#5193DE"/>
</linearGradient>
</defs>
</svg>
