<svg width="50" height="50" viewBox="0 0 50 50" fill="none" xmlns="http://www.w3.org/2000/svg">
<path fill-rule="evenodd" clip-rule="evenodd" d="M44.7368 14.6666C45.0417 13.5282 45.0741 12.3809 44.8741 11.2941C44.1012 13.0628 42.1407 14.0641 40.2078 13.5741C39.5754 13.4139 39.0164 13.1118 38.5561 12.7106C38.3556 12.5627 38.1731 12.3908 38.013 12.1981C37.7318 11.8596 37.5261 11.465 37.4095 11.0406L37.3976 10.9961C37.1479 10.2789 37.0983 9.48313 37.2986 8.69202C37.7038 7.09102 39.0181 5.96051 40.5506 5.71186C40.1577 5.53035 39.7441 5.37976 39.3119 5.26387C35.4634 4.23197 31.5141 6.31937 30.1445 9.97733C31.0392 10.765 31.8347 11.6628 32.5097 12.6497C32.5126 12.2476 32.5661 11.8391 32.675 11.4324C32.9801 10.293 33.6681 9.35931 34.563 8.73229C34.5171 8.9123 34.4794 9.09469 34.4502 9.27891C34.3161 10.1249 34.3641 10.9897 34.5909 11.8157C34.8177 12.6416 35.2181 13.4095 35.7654 14.0682C36.3126 14.7268 36.994 15.2609 37.7641 15.6348C38.5342 16.0087 39.3752 16.2137 40.2309 16.2362C40.3466 16.2393 40.4622 16.239 40.5776 16.2353C39.4046 17.3081 37.7267 17.7773 36.0795 17.3356C35.4348 17.1628 34.8558 16.8667 34.361 16.4796C34.5006 16.9303 34.6184 17.3907 34.7133 17.8593C34.8078 17.8562 34.9028 17.8547 34.9981 17.8547C37.0242 17.8547 38.8861 18.5582 40.3531 19.7345C42.4367 18.8376 44.1042 17.0291 44.7368 14.6666Z" fill="url(#paint0_linear_4_2897)"/>
<path fill-rule="evenodd" clip-rule="evenodd" d="M5 20.713C5 26.9449 8.49882 32.3296 13.5707 34.8699V31.5696C10.157 29.3054 7.8569 25.3256 7.8569 20.713C7.8569 13.5142 13.459 7.8569 20.1534 7.8569C25.8323 7.8569 30.7252 11.928 32.0789 17.5577L32.0833 17.556C32.2744 18.3371 32.3963 19.1469 32.4417 19.978C33.3318 19.5319 34.3221 19.2845 35.3536 19.2845C39.0047 19.2845 42.1397 22.3837 42.1397 26.4267C42.1397 28.8701 40.9948 30.9688 39.2828 32.247V35.5609C42.6501 34.0011 44.9966 30.4981 44.9966 26.4267C44.9966 20.9044 40.6793 16.4276 35.3536 16.4276C35.1481 16.4276 34.9441 16.4343 34.7418 16.4474C32.9492 9.84211 27.0966 5 20.1534 5C11.7844 5 5 12.0349 5 20.713ZM28.8822 31.0015C29.1817 31.1745 29.6509 31.0989 29.8909 30.6832C30.0223 30.4556 30.1911 29.9827 30.3135 29.2129C30.3622 28.906 30.399 28.5824 30.4256 28.25C29.5913 28.8403 28.9592 29.4385 28.6533 29.9685C28.4134 30.3842 28.5827 30.8285 28.8822 31.0015ZM30.4184 24.8864C31.9073 24.0523 33.1679 23.5757 33.1679 23.5757C33.1679 23.5757 33.3328 24.9171 33.3393 26.6073C33.3463 28.4587 33.1632 30.7287 32.3648 32.1121C31.3607 33.8517 29.1622 34.4623 27.4541 33.4758C25.7461 32.4893 25.1754 30.2794 26.1794 28.5397C27.0556 27.0216 28.8618 25.7585 30.4184 24.8864ZM19.4503 32.4554C19.7499 32.6284 20.2191 32.5529 20.459 32.1371C20.5904 31.9095 20.7593 31.4366 20.8816 30.6669C20.9304 30.36 20.9672 30.0363 20.9938 29.7039C20.1595 30.2942 19.5274 30.8924 19.2215 31.4224C18.9816 31.8381 19.1508 32.2824 19.4503 32.4554ZM20.9865 26.3403C22.4755 25.5062 23.7361 25.0296 23.7361 25.0296C23.7361 25.0296 23.901 26.3711 23.9074 28.0612C23.9145 29.9127 23.7314 32.1826 22.9329 33.566C21.9289 35.3057 19.7303 35.9162 18.0223 34.9297C16.3142 33.9433 15.7435 31.7333 16.7476 29.9936C17.6237 28.4755 19.4299 27.2125 20.9865 26.3403ZM33.1109 39.444C32.871 39.8597 32.4017 39.9352 32.1022 39.7622C31.8027 39.5892 31.6335 39.145 31.8734 38.7293C32.1792 38.1993 32.8114 37.6011 33.6457 37.0108C33.6191 37.3431 33.5823 37.6668 33.5335 37.9737C33.4112 38.7435 33.2423 39.2163 33.1109 39.444ZM36.3879 32.3365C36.3879 32.3365 35.1273 32.813 33.6384 33.6472C32.0818 34.5193 30.2756 35.7823 29.3994 37.3004C28.3954 39.0401 28.9661 41.2501 30.6741 42.2366C32.3822 43.2231 34.5808 42.6125 35.5848 40.8728C36.3832 39.4895 36.5663 37.2195 36.5593 35.368C36.5529 33.6779 36.3879 32.3365 36.3879 32.3365ZM22.5054 42.0503C22.805 42.2233 23.2742 42.1478 23.5141 41.7321C23.6455 41.5044 23.8144 41.0316 23.9367 40.2618C23.9855 39.9549 24.0223 39.6312 24.0489 39.2989C23.2146 39.8892 22.5825 40.4874 22.2766 41.0174C22.0367 41.4331 22.2059 41.8773 22.5054 42.0503ZM24.0416 35.9353C25.5305 35.1011 26.7912 34.6246 26.7912 34.6246C26.7912 34.6246 26.9561 35.966 26.9625 37.6561C26.9696 39.5076 26.7864 41.7776 25.988 43.1609C24.984 44.9006 22.7854 45.5112 21.0773 44.5247C19.3693 43.5382 18.7986 41.3282 19.8026 39.5885C20.6788 38.0704 22.485 36.8074 24.0416 35.9353Z" fill="url(#paint1_linear_4_2897)"/>
<defs>
<linearGradient id="paint0_linear_4_2897" x1="37.5723" y1="5.00037" x2="37.5723" y2="19.7345" gradientUnits="userSpaceOnUse">
<stop stop-color="#F5BD52"/>
<stop offset="1" stop-color="#F5DA79"/>
</linearGradient>
<linearGradient id="paint1_linear_4_2897" x1="24.9983" y1="5" x2="24.9983" y2="44.9965" gradientUnits="userSpaceOnUse">
<stop stop-color="#95B6F6"/>
<stop offset="1" stop-color="#5193DE"/>
</linearGradient>
</defs>
</svg>
