<svg width="50" height="50" viewBox="0 0 50 50" fill="none" xmlns="http://www.w3.org/2000/svg">
<path fill-rule="evenodd" clip-rule="evenodd" d="M41.9597 21.0156C43.7386 19.324 44.8475 16.9343 44.8475 14.2857C44.8475 9.15736 40.6901 5 35.5618 5C32.3537 5 29.5255 6.62689 27.8574 9.10065C28.5871 9.79086 29.2476 10.5536 29.8272 11.3772C30.8888 9.28835 33.0582 7.85714 35.5618 7.85714C39.1122 7.85714 41.9904 10.7353 41.9904 14.2857C41.9904 15.8657 41.4203 17.3126 40.4747 18.432C41.0998 19.2009 41.6044 20.0717 41.9597 21.0156Z" fill="url(#paint0_linear_4_2959)"/>
<path fill-rule="evenodd" clip-rule="evenodd" d="M5 20.7143C5 26.3428 7.85379 31.2802 12.1429 34.0555V30.4664C9.53129 28.1246 7.85714 24.6497 7.85714 20.7143C7.85714 13.5149 13.4597 7.85714 20.1547 7.85714C25.8341 7.85714 30.7274 11.9286 32.0812 17.5588L32.0855 17.557C32.2767 18.3382 32.3986 19.1481 32.444 19.9793C33.3342 19.5331 34.3246 19.2857 35.3561 19.2857C39.0076 19.2857 42.1429 22.3851 42.1429 26.4285C42.1429 29.5026 40.3306 32.0311 37.8571 33.0667V36.089C41.9708 34.9467 45 31.0544 45 26.4285C45 20.9057 40.6823 16.4286 35.3561 16.4286C35.1506 16.4286 34.9466 16.4352 34.7443 16.4484C32.9516 9.84252 27.0985 5 20.1547 5C11.785 5 5 12.0355 5 20.7143ZM26.795 37.1721L27.8571 36.4286L26.795 35.6851L27.0203 34.4083L25.7435 34.6336L25 33.5714L24.2565 34.6336L22.9797 34.4083L23.205 35.6851L22.1429 36.4286L23.205 37.1721L22.9797 38.4489L24.2565 38.2235L25 39.2857L25.7435 38.2235L27.0203 38.4489L26.795 37.1721ZM23.3263 30.7143L22.2642 31.4578L22.4895 32.7346L21.2127 32.5092L20.4692 33.5714L19.7257 32.5092L18.4489 32.7346L18.6742 31.4578L17.612 30.7143L18.6742 29.9708L18.4489 28.694L19.7257 28.9193L20.4692 27.8571L21.2127 28.9193L22.4895 28.694L22.2642 29.9708L23.3263 30.7143ZM22.2642 42.8864L23.3263 42.1429L22.2642 41.3994L22.4895 40.1226L21.2127 40.3479L20.4692 39.2857L19.7257 40.3479L18.4489 40.1226L18.6742 41.3994L17.612 42.1429L18.6742 42.8864L18.4489 44.1632L19.7257 43.9378L20.4692 45L21.2127 43.9378L22.4895 44.1632L22.2642 42.8864ZM36.4286 36.4286L35.3664 37.1721L35.5917 38.4489L34.3149 38.2235L33.5714 39.2857L32.8279 38.2235L31.5511 38.4489L31.7765 37.1721L30.7143 36.4286L31.7765 35.6851L31.5511 34.4083L32.8279 34.6336L33.5714 33.5714L34.3149 34.6336L35.5917 34.4083L35.3664 35.6851L36.4286 36.4286ZM30.8356 31.4578L31.8978 30.7143L30.8356 29.9708L31.0609 28.694L29.7841 28.9193L29.0406 27.8571L28.2971 28.9193L27.0203 28.694L27.2456 29.9708L26.1835 30.7143L27.2456 31.4578L27.0203 32.7346L28.2971 32.5092L29.0406 33.5714L29.7841 32.5092L31.0609 32.7346L30.8356 31.4578ZM31.8978 42.1429L30.8356 42.8864L31.0609 44.1632L29.7841 43.9378L29.0406 45L28.2971 43.9378L27.0203 44.1632L27.2456 42.8864L26.1835 42.1429L27.2456 41.3994L27.0203 40.1226L28.2971 40.3479L29.0406 39.2857L29.7841 40.3479L31.0609 40.1226L30.8356 41.3994L31.8978 42.1429ZM17.9784 37.1721L19.0406 36.4286L17.9784 35.6851L18.2038 34.4083L16.927 34.6336L16.1835 33.5714L15.44 34.6336L14.1632 34.4083L14.3885 35.6851L13.3263 36.4286L14.3885 37.1721L14.1632 38.4489L15.44 38.2235L16.1835 39.2857L16.927 38.2235L18.2038 38.4489L17.9784 37.1721Z" fill="url(#paint1_linear_4_2959)"/>
<defs>
<linearGradient id="paint0_linear_4_2959" x1="36.3525" y1="5" x2="36.3525" y2="21.0156" gradientUnits="userSpaceOnUse">
<stop stop-color="#EFC977"/>
<stop offset="1" stop-color="#E07256"/>
</linearGradient>
<linearGradient id="paint1_linear_4_2959" x1="25" y1="5" x2="25" y2="45" gradientUnits="userSpaceOnUse">
<stop stop-color="#B2D4F7"/>
<stop offset="1" stop-color="#D9E2F3"/>
</linearGradient>
</defs>
</svg>
