<svg width="50" height="50" viewBox="0 0 50 50" fill="none" xmlns="http://www.w3.org/2000/svg">
<path fill-rule="evenodd" clip-rule="evenodd" d="M26.6686 25.6362L29.0459 27.2211L24.8123 33.5715H32.0797L24.2534 44.4079L21.9372 42.7351L26.4919 36.4287H19.4736L26.6686 25.6362Z" fill="url(#paint0_linear_13_1217)"/>
<path fill-rule="evenodd" clip-rule="evenodd" d="M16.4286 35.95C9.86053 34.2283 5 28.0598 5 20.7143C5 12.0355 11.785 5 20.1547 5C27.0985 5 32.9516 9.84252 34.7443 16.4484C34.9466 16.4352 35.1506 16.4286 35.3561 16.4286C40.6823 16.4286 45 20.9057 45 26.4285C45 31.9514 40.6823 36.4285 35.3561 36.4285C35.2369 36.4285 35.1182 36.4263 35 36.4218V33.5714H35.4328V33.5709C39.0513 33.5279 42.1429 30.4436 42.1429 26.4285C42.1429 22.3851 39.0076 19.2857 35.3561 19.2857C34.3246 19.2857 33.3342 19.5331 32.444 19.9793C32.3986 19.1481 32.2767 18.3382 32.0855 17.557L32.0812 17.5588C30.7274 11.9286 25.8341 7.85714 20.1547 7.85714C13.4597 7.85714 7.85714 13.5149 7.85714 20.7143C7.85714 26.5225 11.5037 31.3273 16.4286 32.9674V35.95Z" fill="url(#paint1_linear_13_1217)"/>
<defs>
<linearGradient id="paint0_linear_13_1217" x1="25.7767" y1="25.6362" x2="25.7767" y2="44.4079" gradientUnits="userSpaceOnUse">
<stop stop-color="#F5BD52"/>
<stop offset="1" stop-color="#F5DA79"/>
</linearGradient>
<linearGradient id="paint1_linear_13_1217" x1="25" y1="5" x2="25" y2="36.4285" gradientUnits="userSpaceOnUse">
<stop stop-color="#95B6F6"/>
<stop offset="1" stop-color="#5193DE"/>
</linearGradient>
</defs>
</svg>
